<svg class="superSVG" role="img" alt="droplet droplet fluid liquid drop" title="droplet droplet fluid liquid drop" version="1.0" xmlns="http://www.w3.org/2000/svg" width="889.000000pt" height="1280.000000pt" viewBox="0 0 889.000000 1280.000000" preserveAspectRatio="xMidYMid meet">
<metadata>
Created by potrace 1.15, written by Peter Selinger 2001-2017
</metadata>
<g transform="translate(0.000000,1280.000000) scale(0.100000,-0.100000)" fill="#000000" stroke="none">
<path d="M5365 12667 c-1064 -1300 -2088 -2577 -3031 -3782 -408 -522 -465
-596 -626 -821 -534 -745 -1000 -1592 -1279 -2326 -225 -591 -350 -1101 -411
-1668 -19 -179 -16 -665 5 -840 92 -751 374 -1347 877 -1850 296 -297 609
-516 1045 -730 657 -323 1497 -547 2370 -632 195 -19 751 -16 948 6 1123 120
2015 589 2673 1406 732 909 1075 2221 913 3500 -149 1181 -688 2193 -1514
2841 -110 87 -215 158 -420 284 -104 65 -228 145 -275 179 -297 214 -581 506
-777 801 -521 781 -708 1838 -537 3035 29 208 73 437 114 597 17 64 29 117 28
119 -2 1 -48 -52 -103 -119z"></path>
</g>
</svg>